<?xml version="1.0" encoding="utf-8"?>
<!-- Generator: Adobe Illustrator 25.4.1, SVG Export Plug-In . SVG Version: 6.00 Build 0)  -->
<svg version="1.1" id="Layer_1" xmlns="http://www.w3.org/2000/svg" xmlns:xlink="http://www.w3.org/1999/xlink" x="0px" y="0px"
	 viewBox="0 0 745.28 626.1" style="enable-background:new 0 0 745.28 626.1;" xml:space="preserve">
<style type="text/css">
	.st0{display:none;fill:#1D71B8;}
	.st1{fill:#FFFFFF;}
	.st2{fill:none;stroke:#FFFFFF;stroke-width:6;stroke-miterlimit:10;}
	.st3{fill:#0578BE;}
	.st4{fill:none;stroke:#0578BE;stroke-width:6;stroke-miterlimit:10;}
</style>
<rect x="0.16" y="0.14" class="st0" width="744.96" height="625.83"/>
<g>
	<path class="st1" d="M238.93,392.06l8.86-0.86c0.53,2.97,1.62,5.16,3.25,6.55c1.63,1.4,3.83,2.09,6.6,2.09
		c2.93,0,5.14-0.62,6.63-1.86c1.49-1.24,2.23-2.69,2.23-4.35c0-1.07-0.31-1.97-0.94-2.72c-0.63-0.75-1.72-1.4-3.28-1.95
		c-1.07-0.37-3.5-1.03-7.29-1.97c-4.88-1.21-8.31-2.7-10.27-4.46c-2.77-2.48-4.15-5.51-4.15-9.07c0-2.3,0.65-4.45,1.95-6.44
		c1.3-2,3.18-3.52,5.63-4.57s5.41-1.57,8.88-1.57c5.66,0,9.92,1.24,12.78,3.72c2.86,2.48,4.36,5.79,4.51,9.94l-9.11,0.4
		c-0.39-2.32-1.23-3.98-2.51-5c-1.28-1.01-3.21-1.52-5.77-1.52c-2.64,0-4.72,0.54-6.21,1.63c-0.96,0.7-1.45,1.63-1.45,2.8
		c0,1.07,0.45,1.98,1.35,2.74c1.15,0.96,3.94,1.97,8.37,3.01s7.71,2.13,9.83,3.25c2.12,1.12,3.78,2.65,4.98,4.58
		c1.2,1.94,1.8,4.33,1.8,7.18c0,2.58-0.72,5-2.15,7.26c-1.44,2.26-3.47,3.93-6.09,5.03c-2.62,1.1-5.9,1.65-9.81,1.65
		c-5.7,0-10.08-1.32-13.13-3.95C241.35,400.95,239.52,397.11,238.93,392.06z"/>
	<path class="st1" d="M313.69,390.16l8.83,2.8c-1.35,4.92-3.6,8.58-6.75,10.97c-3.15,2.39-7.14,3.58-11.98,3.58
		c-5.99,0-10.91-2.05-14.77-6.14c-3.86-4.09-5.78-9.68-5.78-16.78c0-7.51,1.94-13.33,5.81-17.49c3.88-4.15,8.97-6.23,15.29-6.23
		c5.52,0,10,1.63,13.44,4.89c2.05,1.93,3.59,4.7,4.61,8.31l-9.01,2.15c-0.53-2.34-1.65-4.18-3.34-5.54
		c-1.69-1.35-3.75-2.03-6.17-2.03c-3.34,0-6.06,1.2-8.14,3.6s-3.12,6.29-3.12,11.66c0,5.7,1.03,9.76,3.08,12.18
		c2.05,2.42,4.72,3.63,8,3.63c2.42,0,4.5-0.77,6.25-2.31C311.68,395.88,312.93,393.46,313.69,390.16z"/>
	<path class="st1" d="M331.93,406.74v-45.1h9.11v17.75h17.84v-17.75h9.11v45.1h-9.11v-19.72h-17.84v19.72H331.93z"/>
	<path class="st1" d="M377.13,384.47c0-4.59,0.69-8.45,2.06-11.57c1.03-2.3,2.42-4.36,4.2-6.18c1.77-1.83,3.72-3.18,5.83-4.06
		c2.81-1.19,6.05-1.78,9.72-1.78c6.64,0,11.96,2.06,15.95,6.18c3.99,4.12,5.98,9.85,5.98,17.2c0,7.28-1.98,12.98-5.94,17.09
		s-9.25,6.17-15.87,6.17c-6.71,0-12.04-2.05-16-6.14C379.11,397.28,377.13,391.65,377.13,384.47z M386.51,384.16
		c0,5.11,1.18,8.98,3.54,11.61c2.36,2.64,5.35,3.95,8.98,3.95c3.63,0,6.61-1.31,8.94-3.92c2.33-2.62,3.49-6.54,3.49-11.77
		c0-5.17-1.13-9.02-3.4-11.57c-2.27-2.54-5.28-3.81-9.03-3.81c-3.75,0-6.78,1.29-9.08,3.86
		C387.66,375.09,386.51,378.97,386.51,384.16z"/>
	<path class="st1" d="M429.8,406.74v-44.73h9.11v37.13h22.64v7.6H429.8z"/>
	<path class="st1" d="M465.03,406.74l15.41-23.53l-13.97-21.56h10.64l9.04,14.49l8.86-14.49h10.55l-14.03,21.9l15.41,23.19h-10.98
		l-10-15.6l-10.03,15.6H465.03z"/>
</g>
<g>
	<g>
		<polygon class="st2" points="311.64,226.31 323.65,228.11 375.02,235.74 394.91,264.27 332.78,254.6 		"/>
		<polyline class="st2" points="323.29,227.28 329.53,209.47 404.74,220.45 394.91,264.27 		"/>
	</g>
	<path class="st2" d="M332.78,254.6l-16.18,31.61l68.91,12.97l9.18-35.27l25.2,14.39c0.26,0.17,0.13,0.58-0.19,0.55l-28.1-2.17"/>
</g>
<path class="st2" d="M413.79,323.28H314.3c-12.25,0-22.17-9.93-22.17-22.17v-93.55c0-12.25,9.93-22.17,22.17-22.17h99.49
	c12.25,0,22.17,9.93,22.17,22.17v93.55C435.96,313.35,426.03,323.28,413.79,323.28z"/>
<g>
	<path class="st1" d="M246.55,434.28v-12.24h5.17c1.37,0,2.38,0.37,3.02,1.1c0.65,0.73,0.97,1.68,0.97,2.85
		c0,1.19-0.36,2.13-1.09,2.82c-0.73,0.69-1.72,1.04-2.97,1.04h-3.53v4.43H246.55z M248.1,428.64h3.29c0.91,0,1.6-0.24,2.06-0.71
		c0.46-0.47,0.69-1.12,0.69-1.93c0-0.86-0.22-1.53-0.66-2c-0.44-0.48-1.11-0.71-2-0.71h-3.38V428.64z"/>
	<path class="st1" d="M263.82,434.47c-0.57,0-1.1-0.1-1.58-0.3c-0.48-0.2-0.87-0.5-1.16-0.9c-0.29-0.4-0.44-0.9-0.44-1.51
		c0-0.82,0.27-1.5,0.82-2.02c0.54-0.53,1.43-0.79,2.66-0.79h3.13v-0.55c0-0.49-0.07-0.89-0.2-1.18c-0.13-0.29-0.38-0.5-0.75-0.63
		c-0.37-0.13-0.91-0.19-1.62-0.19c-0.54,0-1.07,0.04-1.58,0.13s-0.98,0.21-1.42,0.36v-1.29c0.41-0.15,0.88-0.28,1.43-0.37
		s1.14-0.14,1.78-0.14c1.28,0,2.24,0.26,2.88,0.78c0.64,0.52,0.96,1.36,0.96,2.53v5.89h-1.31l-0.11-1.03
		c-0.39,0.41-0.87,0.71-1.42,0.91C265.33,434.37,264.64,434.47,263.82,434.47z M264.22,433.2c0.66,0,1.24-0.12,1.75-0.35
		c0.51-0.23,0.94-0.55,1.29-0.96v-1.75h-3.1c-0.71,0-1.22,0.13-1.52,0.4c-0.3,0.27-0.46,0.67-0.46,1.22c0,0.54,0.18,0.92,0.55,1.13
		S263.6,433.2,264.22,433.2z"/>
	<path class="st1" d="M278.39,434.47c-0.89,0-1.56-0.24-2-0.71s-0.67-1.14-0.67-1.99v-5.26h-1.37v-1.23h1.37v-2.22l1.56-0.48v2.7
		h2.49l-0.1,1.23h-2.39v5.19c0,0.54,0.12,0.93,0.37,1.17s0.67,0.35,1.28,0.35c0.33,0,0.69-0.06,1.08-0.19v1.18
		C279.54,434.38,279,434.47,278.39,434.47z"/>
	<path class="st1" d="M285.61,434.28v-12.81h1.56v4.77c0.42-0.34,0.91-0.62,1.47-0.84c0.56-0.21,1.22-0.32,1.97-0.32
		c1.09,0,1.91,0.27,2.45,0.8c0.54,0.53,0.82,1.37,0.82,2.51v5.89h-1.56v-5.83c0-0.79-0.17-1.33-0.52-1.64
		c-0.35-0.31-0.92-0.47-1.72-0.47c-0.51,0-1.03,0.11-1.57,0.33s-0.99,0.51-1.34,0.86v6.75H285.61z"/>
	<path class="st1" d="M301.74,434.28l-2.36-9.01h1.56l1.77,7.24l2.01-6.19v-1.04h1.2l2.22,7.24l1.77-7.24h1.56l-2.36,9.01h-1.56
		l-2.11-6.54l-2.15,6.54H301.74z"/>
	<path class="st1" d="M319.49,434.47c-0.57,0-1.1-0.1-1.58-0.3c-0.48-0.2-0.87-0.5-1.16-0.9c-0.29-0.4-0.44-0.9-0.44-1.51
		c0-0.82,0.27-1.5,0.82-2.02c0.54-0.53,1.43-0.79,2.66-0.79h3.13v-0.55c0-0.49-0.07-0.89-0.2-1.18c-0.13-0.29-0.38-0.5-0.75-0.63
		c-0.37-0.13-0.91-0.19-1.62-0.19c-0.54,0-1.07,0.04-1.58,0.13s-0.98,0.21-1.42,0.36v-1.29c0.41-0.15,0.88-0.28,1.43-0.37
		s1.14-0.14,1.78-0.14c1.28,0,2.24,0.26,2.88,0.78c0.64,0.52,0.96,1.36,0.96,2.53v5.89h-1.31l-0.11-1.03
		c-0.39,0.41-0.87,0.71-1.42,0.91C321,434.37,320.31,434.47,319.49,434.47z M319.89,433.2c0.66,0,1.24-0.12,1.75-0.35
		c0.51-0.23,0.94-0.55,1.29-0.96v-1.75h-3.1c-0.71,0-1.22,0.13-1.52,0.4c-0.3,0.27-0.46,0.67-0.46,1.22c0,0.54,0.18,0.92,0.55,1.13
		S319.27,433.2,319.89,433.2z"/>
	<path class="st1" d="M331.61,437.63c-0.6,0-1.12-0.08-1.56-0.25v-1.25c0.22,0.08,0.42,0.13,0.6,0.15s0.37,0.04,0.56,0.04
		c0.43,0,0.77-0.08,1.02-0.23c0.25-0.15,0.46-0.38,0.66-0.69s0.4-0.71,0.63-1.21l-3.97-8.91h1.62l3.13,7.26l3.23-7.26h1.6
		l-3.78,8.61c-0.32,0.72-0.64,1.37-0.97,1.93c-0.33,0.56-0.71,1.01-1.14,1.33S332.25,437.63,331.61,437.63z"/>
	<path class="st1" d="M356.29,434.28v-11h-4.07v-1.24h9.69v1.24h-4.07v11H356.29z"/>
	<path class="st1" d="M369.74,434.47c-1.57,0-2.71-0.4-3.43-1.21c-0.72-0.8-1.07-1.97-1.07-3.49c0-1.51,0.36-2.67,1.08-3.48
		c0.72-0.81,1.86-1.22,3.42-1.22c1.56,0,2.7,0.41,3.42,1.22c0.72,0.81,1.08,1.97,1.08,3.48c0,1.52-0.35,2.68-1.06,3.49
		C372.47,434.07,371.33,434.47,369.74,434.47z M369.74,433.14c1.08,0,1.84-0.27,2.28-0.81c0.44-0.54,0.67-1.39,0.67-2.56
		s-0.23-2.02-0.67-2.56c-0.45-0.54-1.21-0.81-2.27-0.81c-1.06,0-1.82,0.27-2.27,0.81c-0.45,0.54-0.67,1.39-0.67,2.56
		s0.22,2.02,0.67,2.56S368.66,433.14,369.74,433.14z"/>
	<path class="st1" d="M388.49,434.28v-12.24h8.26v1.24h-6.71v4.28h6.02v1.22h-6.02v4.29h6.71v1.22H388.49z"/>
	<path class="st1" d="M401.6,434.28l3.42-4.58l-3.31-4.43h1.69l2.45,3.36l2.47-3.36H410l-3.27,4.43l3.4,4.58h-1.69l-2.58-3.51
		l-2.56,3.51H401.6z"/>
	<path class="st1" d="M419.43,434.47c-1.57,0-2.74-0.41-3.5-1.23c-0.76-0.82-1.14-1.97-1.14-3.47c0-1.58,0.43-2.76,1.29-3.53
		s2.02-1.16,3.48-1.16c0.6,0,1.09,0.04,1.48,0.12s0.77,0.21,1.14,0.39v1.23c-0.68-0.33-1.46-0.49-2.34-0.49
		c-1.11,0-1.98,0.26-2.58,0.79s-0.91,1.41-0.91,2.65c0,1.19,0.27,2.06,0.8,2.61c0.53,0.55,1.41,0.83,2.64,0.83
		c0.87,0,1.68-0.16,2.41-0.49v1.25c-0.39,0.16-0.81,0.29-1.26,0.37C420.49,434.43,419.98,434.47,419.43,434.47z"/>
	<path class="st1" d="M432.17,434.47c-1.61,0-2.81-0.39-3.61-1.16c-0.8-0.77-1.2-1.96-1.2-3.57c0-1.44,0.34-2.58,1.04-3.41
		c0.69-0.83,1.78-1.25,3.28-1.25c0.89,0,1.62,0.16,2.19,0.48c0.58,0.32,1.01,0.77,1.29,1.33c0.29,0.56,0.43,1.2,0.43,1.91v1.69
		h-6.67c0.05,0.68,0.2,1.22,0.45,1.62s0.62,0.67,1.12,0.85c0.5,0.17,1.16,0.26,1.99,0.26c0.92,0,1.77-0.16,2.55-0.47v1.22
		c-0.39,0.17-0.83,0.29-1.32,0.38C433.22,434.43,432.71,434.47,432.17,434.47z M428.93,429.38h5.28v-0.74c0-0.74-0.19-1.3-0.58-1.7
		c-0.39-0.4-1.02-0.6-1.91-0.6c-1.08,0-1.81,0.25-2.2,0.76S428.93,428.37,428.93,429.38z"/>
	<path class="st1" d="M443.63,434.47c-0.61,0-1.09-0.16-1.43-0.49c-0.35-0.32-0.52-0.87-0.52-1.64v-10.87h1.56v10.7
		c0,0.38,0.06,0.64,0.19,0.78c0.13,0.14,0.32,0.21,0.59,0.21c0.29,0,0.58-0.04,0.86-0.11v1.24c-0.2,0.08-0.41,0.13-0.61,0.15
		C444.06,434.46,443.85,434.47,443.63,434.47z"/>
	<path class="st1" d="M451.95,434.47c-0.61,0-1.09-0.16-1.43-0.49c-0.35-0.32-0.52-0.87-0.52-1.64v-10.87h1.56v10.7
		c0,0.38,0.06,0.64,0.19,0.78c0.13,0.14,0.32,0.21,0.59,0.21c0.29,0,0.58-0.04,0.86-0.11v1.24c-0.2,0.08-0.41,0.13-0.61,0.15
		C452.38,434.46,452.17,434.47,451.95,434.47z"/>
	<path class="st1" d="M463.22,434.47c-1.61,0-2.81-0.39-3.61-1.16c-0.8-0.77-1.2-1.96-1.2-3.57c0-1.44,0.34-2.58,1.04-3.41
		c0.69-0.83,1.78-1.25,3.28-1.25c0.89,0,1.62,0.16,2.19,0.48c0.58,0.32,1.01,0.77,1.29,1.33c0.29,0.56,0.43,1.2,0.43,1.91v1.69
		h-6.67c0.05,0.68,0.2,1.22,0.45,1.62s0.62,0.67,1.12,0.85c0.5,0.17,1.16,0.26,1.99,0.26c0.92,0,1.77-0.16,2.55-0.47v1.22
		c-0.39,0.17-0.83,0.29-1.32,0.38C464.26,434.43,463.75,434.47,463.22,434.47z M459.97,429.38h5.28v-0.74c0-0.74-0.19-1.3-0.58-1.7
		c-0.39-0.4-1.02-0.6-1.91-0.6c-1.08,0-1.81,0.25-2.2,0.76S459.97,428.37,459.97,429.38z"/>
	<path class="st1" d="M472.72,434.28v-9.01h1.41l0.09,1.03c0.43-0.35,0.93-0.65,1.51-0.87c0.58-0.23,1.24-0.34,1.99-0.34
		c1.14,0,1.97,0.27,2.49,0.8c0.52,0.53,0.78,1.37,0.78,2.51v5.89h-1.56v-5.83c0-0.79-0.16-1.33-0.48-1.64
		c-0.32-0.31-0.92-0.47-1.82-0.47c-0.56,0-1.08,0.1-1.58,0.3c-0.49,0.2-0.92,0.48-1.27,0.84v6.8H472.72z"/>
	<path class="st1" d="M491.3,434.47c-1.57,0-2.74-0.41-3.5-1.23c-0.76-0.82-1.14-1.97-1.14-3.47c0-1.58,0.43-2.76,1.29-3.53
		s2.02-1.16,3.48-1.16c0.6,0,1.09,0.04,1.48,0.12s0.77,0.21,1.14,0.39v1.23c-0.68-0.33-1.46-0.49-2.34-0.49
		c-1.11,0-1.98,0.26-2.58,0.79s-0.91,1.41-0.91,2.65c0,1.19,0.27,2.06,0.8,2.61c0.53,0.55,1.41,0.83,2.64,0.83
		c0.87,0,1.68-0.16,2.41-0.49v1.25c-0.39,0.16-0.81,0.29-1.26,0.37C492.36,434.43,491.86,434.47,491.3,434.47z"/>
	<path class="st1" d="M504.05,434.47c-1.61,0-2.81-0.39-3.61-1.16c-0.8-0.77-1.2-1.96-1.2-3.57c0-1.44,0.34-2.58,1.04-3.41
		c0.69-0.83,1.78-1.25,3.28-1.25c0.89,0,1.62,0.16,2.19,0.48c0.58,0.32,1.01,0.77,1.29,1.33c0.29,0.56,0.43,1.2,0.43,1.91v1.69
		h-6.67c0.05,0.68,0.2,1.22,0.45,1.62s0.62,0.67,1.12,0.85c0.5,0.17,1.16,0.26,1.99,0.26c0.92,0,1.77-0.16,2.55-0.47v1.22
		c-0.39,0.17-0.83,0.29-1.32,0.38C505.09,434.43,504.58,434.47,504.05,434.47z M500.8,429.38h5.28v-0.74c0-0.74-0.19-1.3-0.58-1.7
		c-0.39-0.4-1.02-0.6-1.91-0.6c-1.08,0-1.81,0.25-2.2,0.76S500.8,428.37,500.8,429.38z"/>
</g>
</svg>
