<svg width="81" height="115" viewBox="0 0 81 115" fill="none" xmlns="http://www.w3.org/2000/svg">
<path fill-rule="evenodd" clip-rule="evenodd" d="M79.0597 54.3159V54.3159L79.34 55.193L79.5997 56.0767L79.8384 56.9667L80.0557 57.8622L80.2511 58.7629L80.4244 59.668L80.5752 60.5771L80.7035 61.4895L80.8088 62.4047L80.8913 63.3221L80.9506 64.2411L80.9869 65.161L81 66.0813L80.9901 67.0015L80.9572 67.9209L80.9015 68.8391L80.823 69.7553L80.7221 70.6691L80.5989 71.58L80.4536 72.4874L80.2866 73.3909L80.0982 74.2899L79.8886 75.1841L79.6583 76.0728L79.4076 76.9558L79.1368 77.8325L78.8463 78.7026L78.5366 79.5657L78.2079 80.4213L77.8607 81.2693L77.4954 82.109L77.1123 82.9404L76.7118 83.7629L76.2944 84.5763L75.8603 85.3803L75.41 86.1745L74.9437 86.9586L74.4617 87.7324L73.9645 88.4955L73.4523 89.2476L72.9254 89.9884L72.3841 90.7177L71.8287 91.4351L71.2595 92.1403L70.6768 92.8331L70.0809 93.5131L69.4721 94.1802L68.8507 94.834L68.217 95.4743L67.5714 96.1008L66.9141 96.7132L66.2454 97.3114L65.5657 97.8952L64.8754 98.4641L64.1746 99.0182L63.4639 99.557L62.7434 100.081L62.0137 100.588L61.2749 101.081L60.5276 101.557L59.772 102.017L59.0085 102.462L58.2376 102.889L57.4596 103.301L56.6749 103.696L55.884 104.074L55.0872 104.436L54.2851 104.781L53.4779 105.11L52.6662 105.422L51.8504 105.717L51.0309 105.996L50.2082 106.258L49.3828 106.504L48.5551 106.734L47.7255 106.947L46.8946 107.145L46.0628 107.327L45.2306 107.494L44.3983 107.646L43.5665 107.782L42.7356 107.905L41.906 108.013L41.0782 108.107L40.2525 108.187L39.4295 108.255L38.6094 108.31L37.7926 108.352L36.9795 108.383L36.1705 108.403L35.3659 108.412L34.566 108.411L33.7711 108.4L32.9815 108.38L32.1974 108.351L31.4193 108.315L30.6474 108.273L29.8818 108.224L29.123 108.17L28.371 108.111L27.626 108.049L26.8882 107.985L26.1577 107.92L25.4345 107.853L24.7186 107.788L24.0101 107.724L23.3089 107.662L22.6148 107.603L21.9277 107.549L21.2474 107.5L20.5736 107.456L19.9062 107.42L19.2447 107.391L18.5888 107.37L17.9381 107.359L17.2921 107.357L16.6504 107.365L16.0126 107.384L15.3779 107.414L14.746 107.456L14.1163 107.51L13.4881 107.576L12.8608 107.655L12.2339 107.746L11.6066 107.851L10.9785 107.968L10.3488 108.098L9.71681 108.241L9.08201 108.397L8.44371 108.565L7.8013 108.746L7.15415 108.938L6.5017 109.142L5.84336 109.356L5.17862 109.58L4.50698 109.813L3.82798 110.054L3.14122 110.302L2.44634 110.556L1.74303 110.815L1.03103 111.078L0.310157 111.344L-0.419727 111.61L-1.15869 111.877L-1.90673 112.142L-2.66379 112.403L-3.42973 112.661L-4.20435 112.912L-4.98737 113.157L-5.77847 113.392L-6.57723 113.617L-7.38317 113.83L-8.19575 114.029L-9.01438 114.214L-9.83837 114.382L-10.667 114.533L-11.4995 114.666L-12.335 114.777L-13.1727 114.868L-14.0116 114.936L-14.8508 114.98L-15.6893 115L-16.5259 114.994L-17.3598 114.962L-18.1898 114.903L-19.0148 114.815L-19.8338 114.7L-20.6457 114.555L-21.4493 114.381L-22.2436 114.178L-23.0276 113.945L-23.8001 113.683L-24.5603 113.39L-25.3072 113.068L-26.0397 112.717L-26.757 112.337L-27.4584 111.928L-28.1429 111.491L-28.8099 111.026L-29.4587 110.535L-30.0886 110.017L-30.699 109.474L-31.2894 108.907L-31.8592 108.315L-32.4078 107.701L-32.9349 107.064L-33.4402 106.406L-33.9231 105.728L-34.3836 105.031L-34.8213 104.315L-35.2362 103.582L-35.6281 102.833L-35.997 102.069L-36.3429 101.291L-36.666 100.5L-36.9663 99.6972L-37.2441 98.884L-37.4997 98.0613L-37.7334 97.2302L-37.9455 96.3919L-38.1365 95.5475L-38.3068 94.698L-38.4569 93.8444L-38.5874 92.9879L-38.6988 92.1293L-38.7918 91.2697L-38.8668 90.4098L-38.9245 89.5505L-38.9656 88.6927L-38.9905 87.8371L-39 86.9844L-38.9946 86.1352L-38.9747 85.2901L-38.9411 84.4495L-38.8941 83.6141L-38.8342 82.7842L-38.7622 81.9604L-38.6784 81.1429L-38.5836 80.3323L-38.4781 79.5289L-38.3627 78.7329L-38.2379 77.9448L-38.1042 77.1648L-37.9623 76.3931L-37.8126 75.63L-37.6558 74.8756L-37.4923 74.1301L-37.3228 73.3936L-37.1477 72.6663L-36.9676 71.9483L-36.7829 71.2395L-36.5941 70.54L-36.4017 69.8499L-36.2061 69.169L-36.0078 68.4974L-35.8071 67.835L-35.6044 67.1818L-35.4001 66.5376L-35.1946 65.9023L-34.9881 65.2758L-34.781 64.658L-34.5735 64.0487L-34.3658 63.4477L-34.1584 62.8549L-33.9512 62.2701L-33.7446 61.693L-33.5388 61.1236L-33.3339 60.5616L-33.13 60.0067L-32.9273 59.4589L-32.7259 58.9177L-32.5259 58.3832L-32.3275 57.8549L-32.1306 57.3328L-31.9354 56.8165L-31.742 56.3059L-31.5503 55.8008L-31.3605 55.3009L-31.1726 54.806L-30.9867 54.3159L-30.8027 53.8303L-30.6207 53.3492L-30.4408 52.8721L-30.2629 52.399L-30.0871 51.9297L-29.9135 51.4638L-29.7421 51.0012L-29.5731 50.5417L-29.4066 50.085L-29.2428 49.6309L-29.082 49.1791L-28.9244 48.7294L-28.7703 48.2814L-28.62 47.8348L-28.4738 47.3894L-28.332 46.9447L-28.1949 46.5004L-28.0629 46.0561L-27.9363 45.6114L-27.8154 45.166L-27.7004 44.7192L-27.5917 44.2708L-27.4894 43.8202L-27.3939 43.367L-27.3053 42.9107L-27.2237 42.4508L-27.1492 41.9868L-27.082 41.5183L-27.022 41.0447L-26.9692 40.5657L-26.9235 40.0806L-26.8848 39.5892L-26.8529 39.0909L-26.8276 38.5854L-26.8085 38.0723L-26.7953 37.5512L-26.7875 37.0219L-26.7848 36.4841L-26.7866 35.9376L-26.7922 35.3822L-26.8011 34.8177L-26.8126 34.2441L-26.826 33.6614L-26.8406 33.0695L-26.8556 32.4685L-26.8702 31.8585L-26.8836 31.2397L-26.8949 30.6124L-26.9034 29.9767L-26.9082 29.3331L-26.9083 28.6818L-26.903 28.0234L-26.8912 27.3583L-26.8723 26.6871L-26.8452 26.0103L-26.8092 25.3287L-26.7633 24.6428L-26.7068 23.9536L-26.6389 23.2616L-26.5587 22.5679L-26.4656 21.8732L-26.3587 21.1785L-26.2375 20.4846L-26.1013 19.7927L-25.9494 19.1036L-25.7814 18.4184L-25.5968 17.7382L-25.395 17.0639L-25.1757 16.3967L-24.9386 15.7376L-24.6833 15.0877L-24.4097 14.448L-24.1176 13.8197L-23.8069 13.2037L-23.4774 12.6011L-23.1294 12.0129L-22.7628 11.44L-22.3777 10.8835L-21.9745 10.3441L-21.5533 9.82269L-21.1145 9.32019L-20.6584 8.83731L-20.1855 8.37474L-19.6963 7.93315L-19.1914 7.5131L-18.6712 7.11513L-18.1365 6.73968L-17.5878 6.38713L-17.026 6.05778L-16.4517 5.75186L-15.8658 5.46952L-15.269 5.21084L-14.6621 4.97576L-14.0461 4.76412L-13.4218 4.57561L-12.7902 4.40982L-12.1522 4.26617L-11.5087 4.14401L-10.8607 4.04255L-10.2092 3.9609L-9.55489 3.89808L-8.8988 3.85299L-8.24174 3.82447L-7.58449 3.81127L-6.92781 3.81208L-6.27239 3.82552L-5.61888 3.85017L-4.96784 3.88457L-4.31979 3.92722L-3.67517 3.97661L-3.03435 4.03121L-2.39763 4.08951L-1.76523 4.14999L-1.1373 4.21117L-0.513898 4.2716L0.104959 4.32988L0.71935 4.38464L1.32942 4.43462L1.93538 4.47859L2.53751 4.51543L3.13613 4.54412L3.73164 4.56374L4.32448 4.57348L4.91512 4.57264L5.50409 4.56068L6.09193 4.53717L6.67923 4.50184L7.26656 4.45452L7.85452 4.39514L8.44371 4.32374L9.03473 4.24044L9.62816 4.14546L10.2246 4.03914L10.8246 3.92189L11.4286 3.79422L12.0373 3.65673L12.651 3.51009L13.2703 3.35507L13.8954 3.19252L14.5269 3.02335L15.1649 2.84854L15.8098 2.66914L16.4618 2.48624L17.1209 2.301L17.7874 2.11461L18.4613 1.9283L19.1424 1.74333L19.8308 1.56099L20.5264 1.38257L21.2288 1.2094L21.9378 1.04277L22.6532 0.884008L23.3745 0.734402L24.1013 0.595234L24.8331 0.467756L25.5694 0.353193L26.3095 0.252729L27.0528 0.167505L27.7987 0.0986141L28.5464 0.0470921L29.2951 0.0139166L30.0441 0L30.7926 0.00618601L31.5397 0.0332455L32.2846 0.0818731L33.0265 0.152684L33.7643 0.246214L34.4974 0.36291L35.2248 0.50314L35.9457 0.667182L36.6592 0.855229L37.3646 1.06738L38.0609 1.30367L38.7475 1.56401L39.4236 1.84827L40.0886 2.15621L40.7417 2.48752L41.3824 2.8418L42.0101 3.2186L42.6243 3.61732L43.2247 4.03728L43.8109 4.4777L44.3828 4.93769L44.9402 5.4163L45.4832 5.91252L46.0117 6.42525L46.526 6.95338L47.0263 7.49573L47.5129 8.05113L47.9864 8.61836L48.4471 9.19622L48.8958 9.78349L49.3329 10.379L49.7593 10.9815L50.1757 11.59L50.583 12.2032L50.9819 12.8202L51.3736 13.4399L51.7588 14.0613L52.1386 14.6836L52.5139 15.306L52.8858 15.9277L53.2552 16.548L53.6232 17.1663L53.9907 17.7822L54.3587 18.3951L54.7281 19.0048L55.0997 19.611L55.4744 20.2135L55.8531 20.8122L56.2363 21.4071L56.6249 21.9982L57.0192 22.5859L57.4199 23.1701L57.8275 23.7513L58.2421 24.3298L58.6643 24.9059L59.0943 25.4801L59.5321 26.0527L59.9781 26.6243L60.4322 27.1955L60.8945 27.7667L61.3648 28.3386L61.843 28.9116L62.3289 29.4865L62.8223 30.0638L63.3228 30.6441L63.8299 31.2281L64.3433 31.8164L64.8624 32.4095L65.3867 33.008L65.9155 33.6126L66.448 34.2238L66.9837 34.842L67.5218 35.468L68.0613 36.102L68.6015 36.7445L69.1416 37.396L69.6805 38.0569L70.2174 38.7274L70.7513 39.4079L71.2812 40.0986L71.8062 40.7998L72.3253 41.5117L72.8375 42.2342L73.3419 42.9676L73.8373 43.7119L74.323 44.467L74.7978 45.2329L75.2609 46.0096L75.7115 46.7968L76.1484 47.5944L76.571 48.4022L76.9783 49.22L77.3695 50.0473L77.744 50.884L78.1009 51.7296L78.4396 52.5837L78.7594 53.446L79.0597 54.3159" fill="#1075BD"/>
</svg>
