<svg width="260" height="484" viewBox="0 0 260 484" fill="none" xmlns="http://www.w3.org/2000/svg">
<path fill-rule="evenodd" clip-rule="evenodd" d="M196.692 241.939V241.939L197.364 243.703L199.268 245.505L202.251 247.378L206.169 249.349L210.875 251.44L216.214 253.665L222.015 256.032L228.086 258.54L234.214 261.178L240.172 263.927L245.722 266.756L250.627 269.624L254.67 272.485L257.663 275.286L259.466 277.975L260 280.504L259.248 282.831L257.258 284.926L254.14 286.771L250.049 288.364L245.175 289.714L239.722 290.844L233.901 291.783L227.911 292.568L221.934 293.24L216.127 293.841L210.624 294.413L205.53 294.996L200.928 295.627L196.881 296.34L193.431 297.168L190.608 298.14L188.431 299.283L186.909 300.622L186.042 302.178L185.826 303.974L186.25 306.028L187.298 308.354L188.945 310.967L191.158 313.874L193.894 317.077L197.096 320.571L200.69 324.34L204.587 328.359L208.675 332.587L212.821 336.966L216.875 341.426L220.669 345.877L224.024 350.217L226.762 354.334L228.712 358.111L229.731 361.436L229.707 364.21L228.579 366.353L226.338 367.819L223.035 368.591L218.772 368.691L213.698 368.175L207.993 367.128L201.859 365.658L195.501 363.889L189.12 361.95L182.901 359.972L177.008 358.083L171.585 356.405L166.755 355.051L162.625 354.134L159.292 353.762L156.847 354.051L155.391 355.127L154.955 357.07L155.412 359.819L156.624 363.303L158.465 367.448L160.811 372.176L163.53 377.397L166.485 383L169.528 388.86L172.501 394.828L175.242 400.739L177.589 406.414L179.39 411.672L180.512 416.339L180.851 420.258L180.342 423.307L178.963 425.405L176.736 426.521L173.726 426.67L170.032 425.918L165.78 424.37L161.11 422.159L156.167 419.437L151.089 416.361L146.003 413.087L141.018 409.762L136.226 406.515L131.696 403.46L127.481 400.693L123.619 398.292L120.13 396.322L117.028 394.832L114.313 393.863L111.981 393.444L110.023 393.6L108.424 394.347L107.166 395.697L106.23 397.657L105.59 400.226L105.22 403.398L105.088 407.154L105.16 411.467L105.393 416.293L105.741 421.569L106.149 427.213L106.557 433.118L106.901 439.151L107.108 445.154L107.109 450.948L106.831 456.339L106.214 461.123L105.203 465.106L103.763 468.114L101.879 470.006L99.5559 470.694L96.8248 470.146L93.736 468.395L90.3577 465.535L86.7692 461.712L83.0551 457.115L79.2991 451.96L75.5785 446.475L71.9608 440.886L68.5009 435.411L65.2411 430.25L62.2107 425.584L59.4283 421.579L56.9029 418.384L54.6365 416.147L52.6258 415.017L50.8636 415.153L49.3165 416.595L47.9225 419.201L46.6256 422.829L45.3765 427.343L44.1307 432.6L42.8481 438.443L41.4931 444.698L40.0354 451.166L38.4508 457.631L36.7226 463.857L34.8433 469.606L32.8151 474.64L30.6504 478.748L28.3713 481.75L26.0079 483.523L23.5961 484L21.1743 483.185L18.7801 481.143L16.4474 477.999L14.2041 473.921L12.0701 469.104L10.0568 463.759L8.16733 458.095L6.39741 452.31L4.73636 446.582L3.1685 441.065L1.67469 435.885L0.233318 431.146L-1.17865 426.927L-2.58484 423.288L-4.00911 420.272L-5.47502 417.908L-7.00578 416.215L-8.6239 415.204L-10.3512 414.876L-12.2086 415.229L-14.2155 416.252L-16.3901 417.93L-18.7477 420.237L-21.3008 423.138L-24.0573 426.585L-27.0195 430.517L-30.1823 434.85L-33.5316 439.483L-37.0425 444.291L-40.678 449.126L-44.3881 453.818L-48.1102 458.18L-51.7702 462.019L-55.2861 465.138L-58.5717 467.36L-61.5433 468.532L-64.1259 468.549L-66.2601 467.356L-67.9075 464.96L-69.0547 461.43L-69.7148 456.891L-69.926 451.514L-69.7486 445.504L-69.2599 439.081L-68.5489 432.47L-67.7109 425.884L-66.8431 419.522L-66.0417 413.561L-65.4003 408.154L-65.0102 403.435L-64.9619 399.525L-65.3484 396.535L-66.2698 394.579L-67.8342 393.771L-70.068 394.078L-72.9238 395.346L-76.3535 397.435L-80.306 400.208L-84.7215 403.525L-89.5276 407.239L-94.6354 411.191L-99.9381 415.208L-105.311 419.105L-110.614 422.692L-115.696 425.781L-120.406 428.196L-124.598 429.787L-128.146 430.441L-130.951 430.089L-132.952 428.715L-134.13 426.355L-134.505 423.092L-134.138 419.05L-133.121 414.378L-131.568 409.243L-129.608 403.812L-127.373 398.245L-124.992 392.688L-122.585 387.267L-120.262 382.084L-118.116 377.221L-116.227 372.739L-114.661 368.682L-113.472 365.076L-112.706 361.939L-112.397 359.274L-112.574 357.082L-113.26 355.353L-114.472 354.075L-116.223 353.231L-118.521 352.801L-121.368 352.759L-124.757 353.075L-128.675 353.714L-133.095 354.632L-137.973 355.778L-143.251 357.091L-148.848 358.5L-154.66 359.923L-160.558 361.268L-166.392 362.437L-171.991 363.327L-177.17 363.837L-181.741 363.872L-185.527 363.354L-188.371 362.225L-190.155 360.458L-190.809 358.056L-190.318 355.054L-188.728 351.519L-186.139 347.543L-182.698 343.236L-178.588 338.715L-174.013 334.1L-169.187 329.504L-164.319 325.027L-159.608 320.755L-155.238 316.76L-151.378 313.095L-148.18 309.804L-145.791 306.917L-144.354 304.46L-144.021 302.456L-144.938 300.917L-147.061 299.786L-150.254 298.976L-154.391 298.413L-159.344 298.024L-164.975 297.743L-171.13 297.502L-177.635 297.237L-184.291 296.886L-190.883 296.386L-197.178 295.684L-202.94 294.735L-207.943 293.504L-211.984 291.972L-214.902 290.137L-216.589 288.012L-217 285.628L-216.154 283.026L-214.133 280.259L-211.071 277.382L-207.141 274.451L-202.54 271.518L-197.476 268.628L-192.151 265.818L-186.754 263.112L-181.455 260.529L-176.398 258.077L-171.703 255.755L-167.467 253.559L-163.763 251.477L-160.648 249.497L-158.164 247.6L-156.34 245.768L-155.193 243.981L-154.736 242.219L-154.972 240.46L-155.9 238.684L-157.51 236.868L-159.787 234.994L-162.704 233.042L-166.226 230.995L-170.3 228.836L-174.859 226.556L-179.812 224.145L-185.048 221.603L-190.431 218.935L-195.798 216.156L-200.967 213.288L-205.738 210.364L-209.904 207.427L-213.263 204.527L-215.633 201.719L-216.864 199.059L-216.859 196.6L-215.576 194.388L-213.041 192.459L-209.343 190.83L-204.626 189.504L-199.083 188.468L-192.932 187.692L-186.409 187.134L-179.748 186.741L-173.173 186.455L-166.886 186.214L-161.071 185.953L-155.887 185.605L-151.476 185.105L-147.968 184.382L-145.49 183.362L-144.173 181.963L-144.12 180.107L-145.223 177.792L-147.325 175.04L-150.28 171.874L-153.946 168.324L-158.171 164.429L-162.792 160.238L-167.631 155.818L-172.493 151.25L-177.171 146.629L-181.452 142.065L-185.127 137.677L-188.006 133.583L-189.927 129.897L-190.776 126.717L-190.488 124.118L-189.059 122.146L-186.541 120.816L-183.04 120.109L-178.7 119.975L-173.695 120.343L-168.21 121.123L-162.432 122.214L-156.536 123.514L-150.682 124.923L-145.004 126.345L-139.614 127.697L-134.601 128.903L-130.03 129.9L-125.949 130.633L-122.389 131.056L-119.368 131.132L-116.895 130.829L-114.971 130.119L-113.588 128.981L-112.737 127.398L-112.4 125.354L-112.557 122.84L-113.181 119.853L-114.239 116.395L-115.69 112.479L-117.483 108.129L-119.555 103.382L-121.832 98.2929L-124.223 92.9372L-126.624 87.4109L-128.919 81.8326L-130.982 76.3415L-132.679 71.0939L-133.88 66.2564L-134.465 61.9963L-134.334 58.4704L-133.417 55.8115L-131.677 54.117L-129.123 53.4387L-125.803 53.777L-121.804 55.0801L-117.244 57.2478L-112.264 60.1401L-107.015 63.5884L-101.648 67.4073L-96.3089 71.4062L-91.1266 75.3982L-86.2139 79.2062L-81.6654 82.6665L-77.5584 85.6279L-73.9563 87.9493L-70.9125 89.4944L-68.4753 90.1239L-66.6936 89.6865L-65.5788 88.0846L-65.0333 85.4114L-64.9534 81.7823L-65.2445 77.3087L-65.8157 72.1071L-66.5761 66.3064L-67.4331 60.0541L-68.2911 53.5194L-69.0531 46.8934L-69.6226 40.3863L-69.9083 34.2202L-69.8283 28.6187L-69.3165 23.7924L-68.3271 19.9249L-66.8389 17.1573L-64.8567 15.5773L-62.4114 15.2116L-59.5561 16.0255L-56.3617 17.9276L-52.9099 20.7795L-49.2865 24.4094L-45.5757 28.6264L-41.8544 33.2342L-38.1891 38.0426L-34.6339 42.8762L-31.2299 47.5798L-28.0056 52.0208L-24.9786 56.09L-22.1565 59.6994L-19.5392 62.7804L-17.1205 65.2809L-14.8892 67.1621L-12.8307 68.3961L-10.9278 68.9639L-9.16125 68.8536L-7.51066 68.0599L-5.95449 66.5834L-4.4704 64.4318L-3.03543 61.6209L-1.62605 58.1763L-0.218504 54.1365L1.21096 49.5554L2.68565 44.506L4.22769 39.0834L5.85715 33.407L7.59098 27.6221L9.44153 21.8993L11.4154 16.4304L13.5118 11.4222L15.722 7.08601L18.0289 3.62441L20.4069 1.21604L22.8239 0L25.2431 0.0621848L27.626 1.42577L29.9355 4.04742L32.1395 7.81995L34.213 12.5811L36.1405 18.127L37.9164 24.2275L39.5454 30.6421L41.0412 37.1337L42.4259 43.4787L43.7279 49.473L44.9813 54.9345L46.2248 59.7011L47.5013 63.6265L48.8587 66.5729L50.3504 68.4018L52.038 68.964L53.9686 68.2191L56.153 66.3178L58.5958 63.4126L61.2969 59.6494L64.2498 55.1768L67.4392 50.1547L70.8393 44.7588L74.4121 39.1836L78.1067 33.6409L81.8594 28.3557L85.5957 23.5567L89.2335 19.4652L92.6878 16.2799L95.8768 14.1628L98.7282 13.2254L101.185 13.5201L103.211 15.0359L104.792 17.7011L105.937 21.391L106.674 25.9408L107.054 31.1599L107.134 36.8473L106.985 42.8044L106.677 48.8459L106.282 54.8069L105.867 60.5469L105.494 65.9506L105.219 70.9275L105.091 75.4094L105.154 79.347L105.444 82.7071L105.995 85.4694L106.834 87.6236L107.987 89.1676L109.475 90.1058L111.318 90.4482L113.529 90.2103L116.121 89.4133L119.1 88.0855L122.466 86.2634L126.211 83.9938L130.317 81.3357L134.751 78.3629L139.467 75.1656L144.4 71.8516L149.464 68.5464L154.558 65.3911L159.559 62.5387L164.331 60.1477L168.732 58.3728L172.618 57.3546L175.858 57.2079L178.343 58.0111L179.997 59.7974L180.783 62.5504L180.709 66.204L179.827 70.6478L178.229 75.7356L176.04 81.2977L173.407 87.1532L170.49 93.1217L167.452 99.033L164.453 104.733L161.643 110.088L159.164 114.984L157.148 119.324L155.722 123.026L155.011 126.017L155.146 128.225L156.271 129.577L158.412 130.102L161.472 129.928L165.359 129.172L169.977 127.946L175.223 126.358L180.981 124.523L187.113 122.561L193.462 120.595L199.848 118.757L206.076 117.179L211.94 115.984L217.236 115.289L221.775 115.185L225.398 115.739L227.984 116.984L229.469 118.915L229.84 121.495L229.144 124.654L227.476 128.299L224.972 132.32L221.794 136.602L218.12 141.029L214.13 145.497L209.996 149.91L205.874 154.193L201.904 158.284L198.202 162.136L194.866 165.72L191.975 169.017L189.59 172.018L187.759 174.724L186.517 177.14L185.892 179.279L185.903 181.155L186.561 182.786L187.875 184.192L189.844 185.394L192.463 186.418L195.715 187.289L199.576 188.035L204.007 188.689L208.952 189.283L214.336 189.854L220.059 190.441L225.997 191.086L232.002 191.831L237.898 192.717L243.49 193.782L248.572 195.059L252.934 196.573L256.381 198.338L258.744 200.354L259.899 202.61L259.776 205.078L258.371 207.721L255.745 210.493L252.018 213.34L247.365 216.211L241.996 219.057L236.142 221.835L230.042 224.512L223.929 227.063L218.02 229.475L212.514 231.745L207.589 233.877L203.404 235.885L200.108 237.786L197.844 239.608L196.762 241.38L196.692 241.939Z" fill="#1075BD"/>
</svg>
